<svg width="15" height="15" viewBox="0 0 15 15" fill="none" xmlns="http://www.w3.org/2000/svg">
<path d="M15 3.5H6.5M6.5 3.5C6.5 2.96957 6.28929 2.46086 5.91421 2.08579C5.53914 1.71071 5.03043 1.5 4.5 1.5C3.96957 1.5 3.46086 1.71071 3.08579 2.08579C2.71071 2.46086 2.5 2.96957 2.5 3.5M6.5 3.5C6.5 4.03043 6.28929 4.53914 5.91421 4.91421C5.53914 5.28929 5.03043 5.5 4.5 5.5C3.96957 5.5 3.46086 5.28929 3.08579 4.91421C2.71071 4.53914 2.5 4.03043 2.5 3.5M2.5 3.5H0M15 11.5H12.5M12.5 11.5C12.5 10.9696 12.2893 10.4609 11.9142 10.0858C11.5391 9.71071 11.0304 9.5 10.5 9.5C9.96957 9.5 9.46086 9.71071 9.08579 10.0858C8.71071 10.4609 8.5 10.9696 8.5 11.5M12.5 11.5C12.5 12.0304 12.2893 12.5391 11.9142 12.9142C11.5391 13.2893 11.0304 13.5 10.5 13.5C9.96957 13.5 9.46086 13.2893 9.08579 12.9142C8.71071 12.5391 8.5 12.0304 8.5 11.5M8.5 11.5H0" stroke="#727272"/>
</svg>
